<?xml version="1.0" encoding="UTF-8" standalone="no"?>
<svg width="138px" height="133px" viewBox="0 0 138 133" version="1.1" xmlns="http://www.w3.org/2000/svg" xmlns:xlink="http://www.w3.org/1999/xlink" xmlns:sketch="http://www.bohemiancoding.com/sketch/ns">
    <!-- Generator: Sketch 3.3.3 (12081) - http://www.bohemiancoding.com/sketch -->
    <title>Rectangle 1</title>
    <desc>Created with Sketch.</desc>
    <defs></defs>
    <g id="Page-1" stroke="none" stroke-width="1" fill="none" fill-rule="evenodd" sketch:type="MSPage">
        <path d="M54,35.4657145 L54,0 L84,0 L84,35.4657145 L84,35.4657145 L111.441878,13.2437199 L130.32149,36.5580988 L102.844022,58.8089134 L137.193863,66.739199 L130.445331,95.9703009 L95.9385554,88.0037841 L95.9385554,88.0037841 L111.440633,119.787754 L84.476812,132.938889 L69,101.206721 L53.523188,132.938889 L26.5593666,119.787754 L42.0614446,88.0037841 L42.0614446,88.0037841 L7.55466907,95.9703009 L0.806137439,66.739199 L35.155978,58.8089134 L7.67851029,36.5580988 L26.558122,13.2437199 L54,35.4657145 Z M59.700525,47 L78.299475,47 L90.1392273,61.6208765 L90.1392273,61.6208765 L85.9079415,79.9485889 L69,88.195143 L69,88.195143 L52.0920585,79.9485889 L47.8607727,61.6208765 L59.700525,47 Z" id="Rectangle-1" fill-opacity="0.533656024" fill="#D8D8D8" sketch:type="MSShapeGroup"></path>
    </g>
</svg>